<svg width="26" height="16" viewBox="0 0 26 16" fill="none" xmlns="http://www.w3.org/2000/svg">
<path d="M13.4083 15.9537C12.5764 15.9537 11.6992 15.8697 10.7767 15.7017C9.85407 15.5337 8.95418 15.2697 8.07697 14.9097C7.19976 14.5497 6.4133 14.0977 5.71759 13.5537H4.06148C3.24477 12.6417 2.83641 10.9857 2.83641 8.58573C2.83641 7.97773 2.88935 7.37373 2.99522 6.77373C3.10109 6.17373 3.24477 5.62573 3.42626 5.12973C3.60775 4.63373 3.81193 4.24973 4.03879 3.97773C4.06904 3.96173 4.16357 3.96173 4.32237 3.97773C4.48118 3.99373 4.65511 4.00573 4.84416 4.01373C5.03321 4.02173 5.18824 4.02573 5.30923 4.02573C5.58147 4.02573 5.81211 4.00573 6.00117 3.96573C6.19022 3.92573 6.4133 3.82573 6.67041 3.66573C6.92753 3.50573 7.26782 3.24973 7.6913 2.89773C8.40214 2.30573 9.02224 1.89773 9.55159 1.67373C10.0809 1.44973 10.6859 1.33773 11.3665 1.33773C12.9243 1.33773 14.1872 1.54573 15.1551 1.96173C15.6542 2.16973 16.0966 2.33773 16.4823 2.46573C16.868 2.59373 17.1591 2.68973 17.3557 2.75373C17.628 2.81773 17.8699 2.93773 18.0817 3.11373C18.4144 3.12973 18.7434 3.15373 19.0685 3.18573C19.3937 3.21773 19.7227 3.24973 20.0554 3.28173C20.5847 3.34573 21.1481 3.41373 21.7455 3.48573C22.3429 3.55773 22.8761 3.62573 23.3449 3.68973C24.2826 3.80173 24.9594 4.00973 25.3754 4.31373C25.7913 4.61773 25.9992 5.05773 25.9992 5.63373C25.9992 6.73773 25.2581 7.28973 23.776 7.28973C23.5189 7.28973 23.1521 7.27773 22.6757 7.25373C22.1993 7.22973 21.7191 7.21773 21.2351 7.21773C20.8721 7.21773 20.5167 7.22573 20.1688 7.24173C19.821 7.25773 19.4807 7.28173 19.1479 7.31374C19.3899 7.68174 19.5109 8.14573 19.5109 8.70573C19.5109 9.42573 19.1858 9.93773 18.5354 10.2417C18.3237 10.3377 18.2178 10.4577 18.2178 10.6017C18.2178 10.7297 18.2556 10.8857 18.3312 11.0697C18.4069 11.2537 18.4447 11.4577 18.4447 11.6817C18.4447 12.5137 18.0741 13.0657 17.333 13.3377C17.2272 13.3697 17.1629 13.4137 17.1402 13.4697C17.1175 13.5257 17.1062 13.6417 17.1062 13.8177C17.1062 14.5377 16.7923 15.0737 16.1647 15.4257C15.537 15.7777 14.6182 15.9537 13.4083 15.9537ZM13.4083 15.1377H14.3157C14.1342 15.0737 13.9187 14.9897 13.6692 14.8857C13.4196 14.7817 13.1209 14.6337 12.7731 14.4417C12.3193 14.1857 11.911 13.9057 11.548 13.6017C11.185 13.2977 10.9203 13.0177 10.754 12.7617C10.7086 12.6337 10.6859 12.4737 10.6859 12.2817C10.6859 12.1217 10.7162 11.9737 10.7767 11.8377C10.8372 11.7017 10.9052 11.5857 10.9808 11.4897C10.6935 11.3297 10.4326 11.1777 10.1982 11.0337C9.96373 10.8897 9.78602 10.7617 9.66502 10.6497C9.60452 10.5697 9.55159 10.4697 9.50622 10.3497C9.46084 10.2297 9.4306 10.0897 9.41547 9.92973C9.21885 9.99373 9.00333 10.0417 8.76891 10.0737C8.53448 10.1057 8.28871 10.1217 8.0316 10.1217C7.65349 10.1217 7.3132 10.0817 7.01071 10.0017V9.16173C7.13171 9.19373 7.29429 9.21773 7.49847 9.23373C7.70265 9.24973 7.88036 9.25773 8.0316 9.25773C8.34921 9.25773 8.63657 9.23773 8.89368 9.19773C9.1508 9.15773 9.37766 9.08173 9.57428 8.96973C9.80114 8.55373 10.1414 8.32173 10.5952 8.27373C10.5195 8.03373 10.4817 7.80173 10.4817 7.57773C10.4817 7.16173 10.6027 6.80573 10.8447 6.50973C11.0867 6.21373 11.4421 6.06573 11.911 6.06573C12.0773 6.06573 12.2475 6.08973 12.4214 6.13773C12.5953 6.18573 12.7731 6.24973 12.9546 6.32973C13.015 6.24973 13.0755 6.16173 13.136 6.06573C13.1965 5.96973 13.257 5.86573 13.3175 5.75373C12.8033 5.60973 12.4555 5.44173 12.274 5.24973L12.8865 4.67373C12.9621 4.75373 13.1436 4.83773 13.431 4.92573C13.7183 5.01373 14.0586 5.09773 14.4519 5.17773C14.8451 5.25773 15.2308 5.32573 15.6089 5.38173C15.987 5.43773 16.2895 5.46573 16.5163 5.46573C16.8188 5.46573 17.0948 5.36173 17.3444 5.15373C17.5939 4.94573 17.7187 4.61773 17.7187 4.16973V3.92973H17.696C17.696 3.89773 17.6355 3.84173 17.5145 3.76173C17.3935 3.68173 17.2725 3.62573 17.1515 3.59373C16.9549 3.52973 16.6524 3.42973 16.2441 3.29373C15.8357 3.15773 15.3669 2.97773 14.8375 2.75373C13.9754 2.38573 12.8184 2.20173 11.3665 2.20173C10.7767 2.20173 10.2586 2.29773 9.81248 2.48973C9.36632 2.68173 8.82562 3.04973 8.1904 3.59373C7.7518 3.96173 7.38126 4.24173 7.07877 4.43373C6.77629 4.62573 6.4927 4.74973 6.22803 4.80573C5.96336 4.86173 5.65709 4.88973 5.30923 4.88973C5.20336 4.88973 5.06724 4.88573 4.90088 4.87773C4.73451 4.86973 4.58327 4.85773 4.44715 4.84173C4.22028 5.25773 4.03123 5.80973 3.87999 6.49773C3.72874 7.18573 3.65312 7.88173 3.65312 8.58573C3.65312 10.4897 3.9178 11.8577 4.44715 12.6897H5.98982C6.54942 13.1857 7.22245 13.6177 8.00891 13.9857C8.79538 14.3537 9.6499 14.6377 10.5725 14.8377C11.4951 15.0377 12.4403 15.1377 13.4083 15.1377ZM3.58506 14.3457H1.88358C1.5206 14.3457 1.21433 14.1617 0.964783 13.7937C0.715232 13.4257 0.522398 12.9537 0.386279 12.3777C0.250161 11.8017 0.151853 11.1897 0.091356 10.5417C0.0308589 9.89373 0.000610352 9.29773 0.000610352 8.75373C0.000610352 8.20973 0.0308589 7.61373 0.091356 6.96573C0.151853 6.31773 0.253942 5.70573 0.397623 5.12973C0.541303 4.55373 0.734138 4.07773 0.976126 3.70173C1.21811 3.32573 1.5206 3.13773 1.88358 3.13773H3.58506C3.88755 3.13773 4.03879 3.32973 4.03879 3.71373V3.76173C3.94805 3.64973 3.83461 3.59373 3.6985 3.59373C3.38089 3.59373 3.11621 3.75773 2.90447 4.08573C2.69273 4.41373 2.53015 4.83773 2.41671 5.35773C2.30328 5.87773 2.2201 6.43773 2.16716 7.03773C2.11423 7.63773 2.08776 8.20973 2.08776 8.75373C2.08776 9.29773 2.11423 9.87373 2.16716 10.4817C2.2201 11.0897 2.31084 11.6537 2.4394 12.1737C2.56796 12.6937 2.73432 13.1177 2.9385 13.4457C3.14268 13.7737 3.39601 13.9377 3.6985 13.9377C3.83461 13.9377 3.94805 13.8577 4.03879 13.6977V13.8657C4.03879 13.9937 4.00476 14.1057 3.9367 14.2017C3.86864 14.2977 3.75143 14.3457 3.58506 14.3457ZM16.0172 7.28973C16.0928 7.00173 16.2743 6.78573 16.5617 6.64173C16.8491 6.49773 17.1591 6.42573 17.4918 6.42573C17.7036 6.42573 17.8699 6.42973 17.9909 6.43773C18.1119 6.44573 18.2254 6.46573 18.3312 6.49773C18.785 6.46573 19.2727 6.43373 19.7945 6.40173C20.3163 6.36973 20.7965 6.35373 21.2351 6.35373C21.7191 6.35373 22.203 6.36573 22.687 6.38973C23.171 6.41373 23.534 6.42573 23.776 6.42573C24.3204 6.42573 24.691 6.36173 24.8876 6.23373C25.0842 6.10573 25.1825 5.90573 25.1825 5.63373C25.1825 5.32973 25.0426 5.10173 24.7628 4.94973C24.483 4.79773 23.9726 4.66573 23.2315 4.55373C22.7778 4.47373 22.2598 4.40173 21.6775 4.33773C21.0952 4.27373 20.5167 4.20973 19.942 4.14573C19.7453 4.11373 19.5223 4.08973 19.2727 4.07373C19.0232 4.05773 18.7698 4.04173 18.5127 4.02573V4.14573C18.5127 4.83373 18.3199 5.36973 17.9342 5.75373C17.5485 6.13773 17.091 6.32973 16.5617 6.32973C16.2743 6.32973 15.9038 6.29773 15.4501 6.23373C14.9963 6.16973 14.5502 6.08173 14.1116 5.96973C14.0511 6.08173 13.9906 6.19373 13.9301 6.30573C13.8696 6.41773 13.8015 6.52973 13.7259 6.64173H13.7486C13.9452 6.70573 14.225 6.80573 14.588 6.94173C14.951 7.07773 15.4274 7.19373 16.0172 7.28973ZM16.8112 10.0497C17.1289 10.0497 17.5599 9.87373 18.1044 9.52173C18.3615 9.34573 18.5241 9.21773 18.5921 9.13773C18.6602 9.05773 18.6942 8.93773 18.6942 8.77773C18.6942 8.48973 18.664 8.21373 18.6035 7.94973C18.543 7.68573 18.4069 7.46573 18.1951 7.28973C18.1195 7.27374 18.0476 7.26573 17.9796 7.26573C17.9115 7.26573 17.8473 7.26573 17.7868 7.26573C17.3633 7.26573 17.0721 7.34973 16.9133 7.51773C16.7545 7.68573 16.6751 7.92973 16.6751 8.24973C15.934 8.16973 15.3328 8.05373 14.8716 7.90173C14.4103 7.74973 13.9679 7.59373 13.5444 7.43373C13.257 7.33773 12.9697 7.20973 12.6823 7.04973C12.395 6.88973 12.1227 6.82573 11.8656 6.85773C11.7446 6.87373 11.6161 6.92573 11.4799 7.01373C11.3438 7.10173 11.2758 7.25773 11.2758 7.48173C11.2758 7.57773 11.2947 7.68973 11.3325 7.81773C11.3703 7.94573 11.3968 8.02573 11.4119 8.05773C11.6236 8.23373 11.9526 8.45773 12.3987 8.72973C12.8449 9.00173 13.4385 9.27373 14.1796 9.54573C14.6182 9.70573 15.0946 9.82973 15.6089 9.91773C16.1231 10.0057 16.5239 10.0497 16.8112 10.0497ZM16.4483 12.7137C16.7961 12.7137 17.0948 12.6417 17.3444 12.4977C17.5939 12.3537 17.7187 12.1137 17.7187 11.7777C17.7187 11.5857 17.6998 11.4017 17.662 11.2257C17.6242 11.0497 17.5826 10.9057 17.5372 10.7937C17.3557 10.8737 17.1515 10.9137 16.9247 10.9137C16.7583 10.9137 16.5088 10.8897 16.176 10.8417C15.8433 10.7937 15.4916 10.7297 15.1211 10.6497C14.7506 10.5697 14.3989 10.4737 14.0662 10.3617C13.552 10.1857 13.0566 9.97774 12.5802 9.73773C12.1038 9.49774 11.6841 9.25773 11.3211 9.01773C11.1245 8.93773 10.9581 8.89773 10.822 8.89773C10.6254 8.89773 10.4666 8.97773 10.3456 9.13773C10.2246 9.29773 10.1641 9.48173 10.1641 9.68973C10.1641 9.88173 10.2171 10.0657 10.3229 10.2417C10.4742 10.3537 10.7162 10.5057 11.0489 10.6977C11.3816 10.8897 11.7484 11.0857 12.1492 11.2857C12.55 11.4857 12.9167 11.6577 13.2495 11.8017C13.9149 12.0737 14.5086 12.2937 15.0304 12.4617C15.5521 12.6297 16.0248 12.7137 16.4483 12.7137ZM15.5862 14.5617C15.9492 14.5617 16.1798 14.4457 16.2781 14.2137C16.3764 13.9817 16.4256 13.7777 16.4256 13.6017C16.4256 13.5377 16.418 13.4897 16.4029 13.4577H16.2441C15.624 13.4577 15.0379 13.3417 14.4859 13.1097C13.9338 12.8777 13.4461 12.6737 13.0226 12.4977C12.8411 12.4177 12.6369 12.3217 12.4101 12.2097C12.1832 12.0977 11.9563 11.9857 11.7295 11.8737C11.5782 12.0337 11.4875 12.2337 11.4572 12.4737C11.5782 12.6497 11.7749 12.8537 12.0471 13.0857C12.3193 13.3177 12.6067 13.5217 12.9092 13.6977C13.1814 13.8577 13.4347 14.0017 13.6692 14.1297C13.9036 14.2577 14.1683 14.3617 14.4632 14.4417C14.7581 14.5217 15.1324 14.5617 15.5862 14.5617Z" fill="#3C2716"/>
</svg>
